<?xml version="1.0" standalone="no"?>
<!DOCTYPE svg PUBLIC "-//W3C//DTD SVG 20010904//EN"
 "http://www.w3.org/TR/2001/REC-SVG-20010904/DTD/svg10.dtd">
<svg version="1.0" xmlns="http://www.w3.org/2000/svg"
 width="700.000000pt" height="700.000000pt" viewBox="0 0 700.000000 700.000000"
 preserveAspectRatio="xMidYMid meet">
<metadata>
Created by potrace 1.11, written by Peter Selinger 2001-2013
</metadata>
<g transform="translate(0.000000,700.000000) scale(0.100000,-0.100000)"
fill="#000000" stroke="none">
<path d="M3123 6984 c-675 -73 -1292 -331 -1838 -769 -120 -95 -374 -347 -472
-465 -463 -563 -731 -1204 -803 -1919 -15 -153 -12 -543 5 -701 90 -809 437
-1533 1010 -2105 521 -522 1176 -859 1898 -980 206 -34 346 -45 577 -45 231 0
371 11 577 45 450 75 893 243 1281 485 696 435 1245 1144 1486 1920 110 356
156 664 156 1055 0 507 -93 953 -292 1405 -252 573 -670 1086 -1178 1446 -497
352 -1060 565 -1666 629 -172 18 -571 18 -741 -1z m801 -258 c526 -74 993
-254 1416 -544 372 -255 706 -608 937 -989 263 -435 418 -907 464 -1417 15
-161 6 -548 -16 -705 -130 -935 -644 -1757 -1425 -2276 -543 -361 -1150 -545
-1800 -545 -887 0 -1709 348 -2331 987 -597 613 -919 1405 -919 2263 0 679
198 1309 588 1869 196 282 498 585 785 787 453 320 969 515 1527 579 163 18
618 13 774 -9z"/>
<path d="M3062 3957 c-1156 -1156 -2102 -2105 -2102 -2110 0 -4 947 -7 2105
-7 l2105 0 0 2110 c0 1161 -1 2110 -3 2110 -1 0 -948 -946 -2105 -2103z"/>
</g>
</svg>
